<svg xmlns="http://www.w3.org/2000/svg" xmlns:xlink="http://www.w3.org/1999/xlink" width="1000" zoomAndPan="magnify" viewBox="0 0 750 749.999995" height="1000" preserveAspectRatio="xMidYMid meet" version="1.2"><defs/><g id="a60476862f"><g style="fill:#ffffff;fill-opacity:1;"><g transform="translate(220.20777, 256.235468)"><path style="stroke:none" d="M 14.9375 0 L 14.9375 -141.28125 L 55.703125 -141.28125 L 55.703125 -90.625 L 62.5625 -90.625 C 67.40625 -90.625 71.273438 -91.0625 74.171875 -91.9375 C 77.066406 -92.8125 79.421875 -94.359375 81.234375 -96.578125 C 83.046875 -98.796875 84.628906 -101.921875 85.984375 -105.953125 L 98.6875 -141.28125 L 142.890625 -141.28125 L 121.90625 -88.609375 C 118.675781 -80.535156 114.910156 -73.875 110.609375 -68.625 L 147.734375 0 L 100.515625 0 L 73.46875 -53.484375 L 55.703125 -53.484375 L 55.703125 0 Z M 14.9375 0 "/></g></g><g style="fill:#ffffff;fill-opacity:1;"><g transform="translate(240.620914, 417.902848)"><path style="stroke:none" d="M 15.390625 0 L 15.390625 -145.640625 L 57.421875 -145.640625 L 57.421875 -38.90625 L 116.9375 -38.90625 L 116.9375 0 Z M 15.390625 0 "/></g></g><g style="fill:#ffffff;fill-opacity:1;"><g transform="translate(519.653713, 276.684527)"><path style="stroke:none" d="M 3.125 -78.015625 C 3.125 -64.984375 0.59375 -53.679688 -4.46875 -44.109375 C -9.53125 -34.535156 -16.773438 -27.144531 -26.203125 -21.9375 C -35.640625 -16.738281 -46.878906 -14.140625 -59.921875 -14.140625 L -145.640625 -14.140625 L -145.640625 -56.171875 L -62.625 -56.171875 C -45.007812 -56.171875 -36.203125 -63.453125 -36.203125 -78.015625 C -36.203125 -92.585938 -45.007812 -99.875 -62.625 -99.875 L -145.640625 -99.875 L -145.640625 -141.6875 L -59.921875 -141.6875 C -46.878906 -141.6875 -35.640625 -139.117188 -26.203125 -133.984375 C -16.773438 -128.859375 -9.53125 -121.546875 -4.46875 -112.046875 C 0.59375 -102.546875 3.125 -91.203125 3.125 -78.015625 Z M 3.125 -78.015625 "/></g></g><g style="fill:#ffffff;fill-opacity:1;"><g transform="translate(517.464887, 418.805947)"><path style="stroke:none" d="M 0 -50.140625 L -106.734375 -50.140625 L -106.734375 -5.828125 L -145.640625 -5.828125 L -145.640625 -136.28125 L -106.734375 -136.28125 L -106.734375 -91.96875 L 0 -91.96875 Z M 0 -50.140625 "/></g></g><g style="fill:#ffffff;fill-opacity:1;"><g transform="translate(3.768793, 605.347472)"><path style="stroke:none" d="M 65.734375 -121.09375 C 75.335938 -131.375 87.804688 -136.515625 103.140625 -136.515625 C 121.171875 -136.515625 135.070312 -130.65625 144.84375 -118.9375 C 154.625 -107.226562 159.515625 -89.910156 159.515625 -66.984375 C 159.515625 -43.898438 154.625 -26.457031 144.84375 -14.65625 C 135.070312 -2.863281 121.171875 3.03125 103.140625 3.03125 C 84.597656 3.03125 70.441406 -4.296875 60.671875 -18.953125 L 56.375 0 L 15.421875 0 L 15.421875 -183.28125 L 65.734375 -183.28125 Z M 87.46875 -99.34375 C 80.050781 -99.34375 74.488281 -96.6875 70.78125 -91.375 C 67.070312 -86.070312 65.21875 -79.207031 65.21875 -70.78125 L 65.21875 -62.4375 C 65.21875 -54.007812 67.070312 -47.179688 70.78125 -41.953125 C 74.488281 -36.734375 80.050781 -34.125 87.46875 -34.125 C 101.957031 -34.125 109.203125 -42.71875 109.203125 -59.90625 L 109.203125 -73.3125 C 109.203125 -90.664062 101.957031 -99.34375 87.46875 -99.34375 Z M 87.46875 -99.34375 "/></g></g><g style="fill:#ffffff;fill-opacity:1;"><g transform="translate(157.949203, 605.347472)"><path style="stroke:none" d="M 96.3125 -136.765625 C 100.1875 -136.765625 103.640625 -136.300781 106.671875 -135.375 C 109.710938 -134.445312 111.234375 -133.898438 111.234375 -133.734375 L 111.234375 -91.515625 L 95.046875 -91.515625 C 84.597656 -91.515625 77.054688 -88.816406 72.421875 -83.421875 C 67.785156 -78.023438 65.46875 -70.019531 65.46875 -59.40625 L 65.46875 0 L 15.171875 0 L 15.171875 -133.484375 L 56.375 -133.484375 L 59.65625 -113.25 C 62.6875 -121 67.488281 -126.851562 74.0625 -130.8125 C 80.632812 -134.78125 88.050781 -136.765625 96.3125 -136.765625 Z M 96.3125 -136.765625 "/></g></g><g style="fill:#ffffff;fill-opacity:1;"><g transform="translate(255.764409, 605.347472)"><path style="stroke:none" d="M 111.984375 0 L 108.703125 -20.21875 C 103.472656 -12.976562 96.601562 -7.289062 88.09375 -3.15625 C 79.582031 0.96875 70.609375 3.03125 61.171875 3.03125 C 45.671875 3.03125 34.039062 -1.265625 26.28125 -9.859375 C 18.53125 -18.453125 14.65625 -30.835938 14.65625 -47.015625 L 14.65625 -133.484375 L 64.96875 -133.484375 L 64.96875 -53.09375 C 64.96875 -47.363281 66.441406 -42.769531 69.390625 -39.3125 C 72.335938 -35.851562 76.507812 -34.125 81.90625 -34.125 C 88.144531 -34.125 93.203125 -36.144531 97.078125 -40.1875 C 100.953125 -44.238281 102.890625 -49.210938 102.890625 -55.109375 L 102.890625 -133.484375 L 153.1875 -133.484375 L 153.1875 0 Z M 111.984375 0 "/></g></g><g style="fill:#ffffff;fill-opacity:1;"><g transform="translate(409.944819, 605.347472)"><path style="stroke:none" d="M 108.203125 -133.484375 L 166.84375 -133.484375 L 117.546875 -79.625 L 168.109375 0 L 110.984375 0 L 82.921875 -45.75 L 65.46875 -28.8125 L 65.46875 0 L 15.171875 0 L 15.171875 -183.53125 L 65.46875 -183.53125 L 65.46875 -82.40625 Z M 108.203125 -133.484375 "/></g></g><g style="fill:#ffffff;fill-opacity:1;"><g transform="translate(564.125229, 605.347472)"><path style="stroke:none" d="M 104.15625 -133.484375 L 104.15625 -99.34375 L 75.84375 -99.34375 L 75.84375 -48.53125 C 75.84375 -42.46875 76.851562 -38.046875 78.875 -35.265625 C 80.894531 -32.484375 84.601562 -31.09375 90 -31.09375 L 104.15625 -31.09375 L 104.15625 -1.515625 C 100.101562 -0.171875 94.875 0.921875 88.46875 1.765625 C 82.070312 2.609375 76.515625 3.03125 71.796875 3.03125 C 56.960938 3.03125 45.539062 0.335938 37.53125 -5.046875 C 29.53125 -10.441406 25.53125 -19.628906 25.53125 -32.609375 L 25.53125 -99.34375 L 6.828125 -99.34375 L 6.828125 -133.484375 L 27.5625 -133.484375 L 38.421875 -173.921875 L 75.84375 -173.921875 L 75.84375 -133.484375 Z M 104.15625 -133.484375 "/></g></g><g style="fill:#ffffff;fill-opacity:1;"><g transform="translate(661.940435, 605.347472)"><path style="stroke:none" d="M 15.421875 0 L 15.421875 -50.3125 L 69.015625 -50.3125 L 69.015625 0 Z M 15.421875 0 "/></g></g></g></svg>